<svg xmlns="http://www.w3.org/2000/svg"
     data-name="Layer 1" width="100" height="125" style="">
    <rect id="backgroundrect" width="100%" height="100%" x="0" y="0" fill="none" stroke="none"/>
    <title>Artboard 12</title>
    <g class="currentLayer" style="">
        <title>Layer 1</title>
        <path d="M86.1820,60.8766 l-24.737673,-25.293 l0.1432,0 a27.523,28.141905767917635 0 0 0 9.113860130310059,-3.4877858614921573 a27.54989719390869,28.16853008747101 0 0 0 3.189851045608521,-2.6624319553375244 a14.79049301147461,15.122613506317139 0 0 0 2.877375841140747,-3.3679764235019687 a11.574602365493774,11.834510041475296 0 0 0 -0.9634652137756349,-12.446869391202926 a8.501929521560669,8.692840334177017 0 0 0 -4.4137122631073,-3.381288583278656 a6.249504089355469,6.389836692810058 0 0 0 -0.7421286106109664,-0.1464337575435639 a11.561582565307619,11.821197881698609 0 0 0 -1.3019800186157227,-2.4893738782405856 a8.501929521560669,8.692840334177017 0 0 0 -4.4137122631073,-3.381288583278656 a10.272622346878052,10.503294063806534 0 0 0 -3.8278212547302246,-0.10649727821350173 A21.50870990753174,21.99168795108795 0 0 0 56.509902936977596,5.032147370900233 a17.5637104511261,17.9581035387516 0 0 0 -10.103364944458008,10.569854862689972 a21.339452505111694,21.818629873991014 0 0 0 -0.7421286106109664,12.76636122584343 L13.81797812656805,60.8766576341048 a5.871929883956909,6.003784059286117 0 0 0 0,8.493157937526703 l11.874057769775389,12.1540018761158 l10.61113715171814,10.849410218000413 h0 l4.062177658081055,4.166706010103225 V112.59439836653623 a1.0546038150787354,1.0782849419116975 0 0 0 0.5598514080047616,0.9451633441448213 a1.0415840148925781,1.0649727821350101 0 0 0 1.0806434154510498,-0.07987295866012575 L46.094062788051815,110.51770144137295 l1.484257221221924,1.0782849419116975 V119.95602272304448 a1.0415840148925781,1.0649727821350101 0 0 0 1.640494823455814,0.8652903854846956 l4.03613805770874,-2.9419873106479644 l4.023118257522583,2.9419873106479644 A1.0415840148925781,1.0649727821350101 0 0 0 57.81188295559332,121.02099550517949 a1.0025246143341064,1.025036302804947 0 0 0 0.4687128067016603,-0.11980943799018863 a1.028564214706421,1.0516606223583223 0 0 0 0.5728712081909186,-0.9451633441448213 v-22.630671620368958 l4.791286468505859,-4.912186957597733 h0 l10.415840148925781,-10.649727821350098 l12.121433973312378,-12.406932911872865 a5.871929883956909,6.003784059286117 0 0 0 0,-8.493157937526703 zm-11.717820167541504,-8.999020009040832 L63.01980303005621,63.61896254810246 l-11.483463764190674,-11.741324923038484 L63.01980303005621,40.1230005422488 zM61.496486408275814,65.10992444309147 L50.00000284389898,76.87787368568334 L38.50351927952215,65.10992444309147 L50.00000284389898,53.38191167982968 zm9.738810539245605,-52.769401354789736 a6.874454498291016,7.028820362091065 0 0 1 2.7862372398376465,2.4095009195804598 a9.53049373626709,9.74450095653534 0 0 1 0.859306812286383,10.103929270505905 a12.616186380386353,12.899482823610304 0 0 1 -2.4998016357421875,2.8887386715412138 a26.313016176223755,26.903874908685687 0 0 1 -2.9424748420715328,2.4893738782405856 a25.714105367660522,26.291515558958054 0 0 1 -8.397771120071411,3.181606186628342 l-1.3019800186157227,0.3461161541938811 l-4.231435060501099,-4.326451927423477 l0.1301980018615724,0 a24.932917356491085,25.492785972356796 0 0 0 8.54098892211914,-3.4212250626087193 a27.341580390930176,27.955535531044006 0 0 0 3.1768312454223633,-2.6624319553375244 a15.181087017059326,15.521978299617768 0 0 0 2.8903956413269047,-3.3679764235019687 A10.598117351531982,10.836098058223724 0 0 0 71.23529694752142,12.353835248078425 zm-2.8383164405822754,6.509646130800248 a13.019800186157227,13.312159776687622 0 0 1 -2.5128214359283447,2.8887386715412138 a26.443214178085327,27.03699650645256 0 0 1 -2.9424748420715328,2.4760617184638978 a23.032026529312134,23.549210644960404 0 0 1 -7.811880111694336,3.1283575475215915 l-1.3019800186157227,0.3594283139705701 l0,0 a16.118512630462646,16.480453803539277 0 0 1 1.1457424163818362,-5.324863910675049 a15.428463220596313,15.774909335374831 0 0 1 8.853464126586914,-9.318511843681335 a19.139106273651123,19.568874871730802 0 0 1 4.062177658081055,-0.9185390245914461 c0.4947524070739766,0 0.9244058132171636,-0.09318511843681475 1.3019800186157227,-0.10649727821350173 A8.77534532546997,8.972395689487458 0 0 1 68.39698050693914,18.863481378878674 zM48.294409019512386,16.3607953408614 a15.44148302078247,15.78822149515152 0 0 1 8.853464126586914,-9.318511843681335 a18.383957862854004,18.796769604682922 0 0 1 4.075197458267212,-0.9052268648147547 a7.811880111694336,7.987295866012573 0 0 1 3.020593643188477,0 a6.3536624908447275,6.496333971023559 0 0 1 3.280989646911621,2.5825589966773985 a8.866483926773071,9.065580807924272 0 0 1 0.7291088104248135,1.198094379901886 l-0.8072276115417486,0.07987295866012575 a20.714502096176147,21.179646204710007 0 0 0 -4.5048508644104,1.025036302804947 a17.524651050567627,17.918167059421542 0 0 0 -10.09034514427185,10.556542702913283 a18.436037063598633,18.850018243789673 0 0 0 -1.210841417312622,5.005372076034546 a5.8458902835845965,5.977159739732743 0 0 0 -4.192375659942627,0.3594283139705701 A19.451581478118896,19.888366706371308 0 0 1 48.294409019512386,16.3607953408614 zm-0.9895048141479454,13.312159776687622 a3.80178165435791,3.8871506547927854 0 0 1 5.390197277069092,0 l8.801384925842285,8.999020009040832 L50.00000284389898,50.373363570298274 l-11.496483564376831,-11.741324923038484 zm-10.259602546691895,10.489981904029847 l11.483463764190674,11.75463708281517 l-11.483463764190674,11.741324923038484 l-11.496483564376831,-11.741324923038484 zM15.289215547603817,67.87885367664249 a3.80178165435791,3.8871506547927854 0 0 1 0,-5.5112341475486755 l8.801384925842285,-8.985707849264145 L35.574064237636776,65.10992444309147 L24.090600473446102,76.87787368568334 zM25.54881809429571,78.4220842197791 l11.496483564376831,-11.741324923038484 L48.528765422863216,78.4220842197791 l-11.483463764190674,11.75463708281517 zM46.653914196056576,108.34781939777288 a1.0415840148925781,1.0649727821350101 0 0 0 -1.210841417312622,0 l-2.981534242630005,2.1831942033767704 V98.65656708034429 l3.385148048400879,3.461161541938782 a5.793811082839966,5.923911100625992 0 0 0 3.80178165435791,1.7438929307460787 v6.656079888343811 zm10.155444145202637,9.544818559885025 L53.81480429844305,115.69613159450444 A1.0155444145202637,1.0383484625816346 0 0 0 52.60396288113043,115.69613159450444 l-2.9945540428161617,2.1831942033767704 V113.11357259782704 l0.4556930065155008,0.3461161541938811 a1.0415840148925781,1.0649727821350101 0 0 0 0.6119306087493896,0.19968239665031556 a1.0025246143341064,1.025036302804947 0 0 0 0.4687128067016603,-0.11980943799018863 a1.028564214706421,1.0516606223583223 0 0 0 0.5598514080047616,-0.9451633441448213 V103.62200267704877 a5.9500486850738525,6.083657017946243 0 0 0 2.4347026348114014,-1.5042740547657012 l2.6039600372314453,-2.6624319553375244 zm-4.114256858825684,-17.30580770969391 a3.80178165435791,3.8871506547927854 0 0 1 -5.390197277069092,0 l-5.207920074462891,-5.324863910675049 h0 l-3.6455440521240234,-3.7140925776958467 L50.00000284389898,79.87310963543806 l11.496483564376831,11.75463708281517 zM63.01980303005621,90.12347266348752 L51.47124026493475,78.4220842197791 L63.01980303005621,66.62751065763386 L74.45118759350225,78.4220842197791 zM84.71079014019415,67.87885367664249 L75.90940521435188,76.87787368568334 L64.42594145016119,65.10992444309147 l11.483463764190674,-11.741324923038484 l8.801384925842285,8.985707849264145 a3.80178165435791,3.8871506547927854 0 0 1 0,5.5112341475486755 z"
              id="svg_1" class=""/>
    </g>
</svg>